<mxfile host="app.diagrams.net" modified="2022-08-22T03:03:29.826Z" agent="5.0 (Macintosh; Intel Mac OS X 10_15_7) AppleWebKit/537.36 (KHTML, like Gecko) Chrome/104.0.0.0 Safari/537.36" etag="RZCP-HyfVm3MAeIh-4qK" version="20.2.3" type="github">
  <diagram id="85xrUe72RkqVQ7GUlr8d" name="第 1 页">
    <mxGraphModel dx="988" dy="807" grid="1" gridSize="10" guides="1" tooltips="1" connect="1" arrows="1" fold="1" page="1" pageScale="1" pageWidth="827" pageHeight="1169" math="0" shadow="0">
      <root>
        <mxCell id="0" />
        <mxCell id="1" parent="0" />
        <mxCell id="XBY0cPpDNSYfMkYO-j9c-1" value="&lt;font style=&quot;font-size: 18px;&quot;&gt;child(sp)&lt;/font&gt;" style="rounded=0;whiteSpace=wrap;html=1;" vertex="1" parent="1">
          <mxGeometry x="50" y="170" width="180" height="60" as="geometry" />
        </mxCell>
        <mxCell id="XBY0cPpDNSYfMkYO-j9c-2" value="" style="rounded=0;whiteSpace=wrap;html=1;" vertex="1" parent="1">
          <mxGeometry x="50" y="230" width="180" height="60" as="geometry" />
        </mxCell>
        <mxCell id="XBY0cPpDNSYfMkYO-j9c-3" value="&lt;font style=&quot;font-size: 18px;&quot;&gt;parent(sp)&lt;/font&gt;" style="rounded=0;whiteSpace=wrap;html=1;" vertex="1" parent="1">
          <mxGeometry x="50" y="290" width="180" height="60" as="geometry" />
        </mxCell>
        <mxCell id="XBY0cPpDNSYfMkYO-j9c-4" value="" style="rounded=0;whiteSpace=wrap;html=1;" vertex="1" parent="1">
          <mxGeometry x="50" y="350" width="180" height="60" as="geometry" />
        </mxCell>
        <mxCell id="XBY0cPpDNSYfMkYO-j9c-5" value="&lt;font style=&quot;font-size: 18px;&quot;&gt;栈区&lt;/font&gt;" style="text;html=1;align=center;verticalAlign=middle;resizable=0;points=[];autosize=1;strokeColor=none;fillColor=none;" vertex="1" parent="1">
          <mxGeometry x="110" y="125" width="60" height="40" as="geometry" />
        </mxCell>
        <mxCell id="XBY0cPpDNSYfMkYO-j9c-6" value="" style="ellipse;whiteSpace=wrap;html=1;fontSize=18;" vertex="1" parent="1">
          <mxGeometry x="374" y="125" width="426" height="365" as="geometry" />
        </mxCell>
        <mxCell id="XBY0cPpDNSYfMkYO-j9c-7" value="&lt;font style=&quot;font-size: 18px;&quot;&gt;_pParent(sp)&lt;/font&gt;" style="rounded=0;whiteSpace=wrap;html=1;" vertex="1" parent="1">
          <mxGeometry x="497" y="190" width="180" height="60" as="geometry" />
        </mxCell>
        <mxCell id="XBY0cPpDNSYfMkYO-j9c-8" value="堆区" style="text;html=1;align=center;verticalAlign=middle;resizable=0;points=[];autosize=1;strokeColor=none;fillColor=none;fontSize=18;" vertex="1" parent="1">
          <mxGeometry x="540" y="80" width="60" height="40" as="geometry" />
        </mxCell>
        <mxCell id="XBY0cPpDNSYfMkYO-j9c-9" value="&lt;font style=&quot;font-size: 18px;&quot;&gt;_pChild(sp)&lt;/font&gt;" style="rounded=0;whiteSpace=wrap;html=1;" vertex="1" parent="1">
          <mxGeometry x="497" y="320" width="180" height="60" as="geometry" />
        </mxCell>
        <mxCell id="XBY0cPpDNSYfMkYO-j9c-10" value="child对象" style="text;html=1;align=center;verticalAlign=middle;resizable=0;points=[];autosize=1;strokeColor=none;fillColor=none;fontSize=18;" vertex="1" parent="1">
          <mxGeometry x="530" y="150" width="100" height="40" as="geometry" />
        </mxCell>
        <mxCell id="XBY0cPpDNSYfMkYO-j9c-11" value="parent对象" style="text;html=1;align=center;verticalAlign=middle;resizable=0;points=[];autosize=1;strokeColor=none;fillColor=none;fontSize=18;" vertex="1" parent="1">
          <mxGeometry x="532" y="280" width="110" height="40" as="geometry" />
        </mxCell>
        <mxCell id="XBY0cPpDNSYfMkYO-j9c-12" value="" style="endArrow=classic;html=1;rounded=0;fontSize=18;" edge="1" parent="1" target="XBY0cPpDNSYfMkYO-j9c-7">
          <mxGeometry width="50" height="50" relative="1" as="geometry">
            <mxPoint x="230" y="200" as="sourcePoint" />
            <mxPoint x="280" y="150" as="targetPoint" />
          </mxGeometry>
        </mxCell>
        <mxCell id="XBY0cPpDNSYfMkYO-j9c-13" value="" style="endArrow=classic;html=1;rounded=0;fontSize=18;" edge="1" parent="1">
          <mxGeometry width="50" height="50" relative="1" as="geometry">
            <mxPoint x="230" y="330" as="sourcePoint" />
            <mxPoint x="497" y="344.9579831932774" as="targetPoint" />
          </mxGeometry>
        </mxCell>
        <mxCell id="XBY0cPpDNSYfMkYO-j9c-14" value="" style="endArrow=classic;html=1;rounded=0;fontSize=18;entryX=0.128;entryY=0;entryDx=0;entryDy=0;entryPerimeter=0;" edge="1" parent="1" target="XBY0cPpDNSYfMkYO-j9c-9">
          <mxGeometry width="50" height="50" relative="1" as="geometry">
            <mxPoint x="520" y="250" as="sourcePoint" />
            <mxPoint x="570" y="200" as="targetPoint" />
          </mxGeometry>
        </mxCell>
        <mxCell id="XBY0cPpDNSYfMkYO-j9c-15" value="" style="endArrow=classic;html=1;rounded=0;fontSize=18;entryX=0.8;entryY=1.05;entryDx=0;entryDy=0;entryPerimeter=0;" edge="1" parent="1" target="XBY0cPpDNSYfMkYO-j9c-7">
          <mxGeometry width="50" height="50" relative="1" as="geometry">
            <mxPoint x="642" y="320" as="sourcePoint" />
            <mxPoint x="692" y="270" as="targetPoint" />
          </mxGeometry>
        </mxCell>
        <mxCell id="XBY0cPpDNSYfMkYO-j9c-16" value="child指向child对象&lt;br&gt;_pChild指向child对象" style="text;html=1;align=center;verticalAlign=middle;resizable=0;points=[];autosize=1;strokeColor=none;fillColor=none;fontSize=18;" vertex="1" parent="1">
          <mxGeometry x="230" y="470" width="190" height="60" as="geometry" />
        </mxCell>
        <mxCell id="XBY0cPpDNSYfMkYO-j9c-17" value="1" style="text;html=1;align=center;verticalAlign=middle;resizable=0;points=[];autosize=1;strokeColor=none;fillColor=none;fontSize=18;" vertex="1" parent="1">
          <mxGeometry x="320" y="160" width="30" height="40" as="geometry" />
        </mxCell>
        <mxCell id="XBY0cPpDNSYfMkYO-j9c-18" value="2" style="text;html=1;align=center;verticalAlign=middle;resizable=0;points=[];autosize=1;strokeColor=none;fillColor=none;fontSize=18;" vertex="1" parent="1">
          <mxGeometry x="305" y="300" width="30" height="40" as="geometry" />
        </mxCell>
        <mxCell id="XBY0cPpDNSYfMkYO-j9c-19" value="2" style="text;html=1;align=center;verticalAlign=middle;resizable=0;points=[];autosize=1;strokeColor=none;fillColor=none;fontSize=18;" vertex="1" parent="1">
          <mxGeometry x="480" y="270" width="30" height="40" as="geometry" />
        </mxCell>
        <mxCell id="XBY0cPpDNSYfMkYO-j9c-20" value="1" style="text;html=1;align=center;verticalAlign=middle;resizable=0;points=[];autosize=1;strokeColor=none;fillColor=none;fontSize=18;" vertex="1" parent="1">
          <mxGeometry x="647" y="270" width="30" height="40" as="geometry" />
        </mxCell>
        <mxCell id="XBY0cPpDNSYfMkYO-j9c-21" value="&lt;font style=&quot;font-size: 18px;&quot;&gt;child(sp)&lt;/font&gt;" style="rounded=0;whiteSpace=wrap;html=1;" vertex="1" parent="1">
          <mxGeometry x="39" y="725" width="180" height="60" as="geometry" />
        </mxCell>
        <mxCell id="XBY0cPpDNSYfMkYO-j9c-22" value="" style="rounded=0;whiteSpace=wrap;html=1;" vertex="1" parent="1">
          <mxGeometry x="39" y="785" width="180" height="60" as="geometry" />
        </mxCell>
        <mxCell id="XBY0cPpDNSYfMkYO-j9c-23" value="&lt;font style=&quot;font-size: 18px;&quot;&gt;parent(sp)&lt;/font&gt;" style="rounded=0;whiteSpace=wrap;html=1;" vertex="1" parent="1">
          <mxGeometry x="39" y="845" width="180" height="60" as="geometry" />
        </mxCell>
        <mxCell id="XBY0cPpDNSYfMkYO-j9c-24" value="" style="rounded=0;whiteSpace=wrap;html=1;" vertex="1" parent="1">
          <mxGeometry x="39" y="905" width="180" height="60" as="geometry" />
        </mxCell>
        <mxCell id="XBY0cPpDNSYfMkYO-j9c-25" value="&lt;font style=&quot;font-size: 18px;&quot;&gt;栈区&lt;/font&gt;" style="text;html=1;align=center;verticalAlign=middle;resizable=0;points=[];autosize=1;strokeColor=none;fillColor=none;" vertex="1" parent="1">
          <mxGeometry x="99" y="680" width="60" height="40" as="geometry" />
        </mxCell>
        <mxCell id="XBY0cPpDNSYfMkYO-j9c-26" value="" style="ellipse;whiteSpace=wrap;html=1;fontSize=18;" vertex="1" parent="1">
          <mxGeometry x="363" y="680" width="426" height="365" as="geometry" />
        </mxCell>
        <mxCell id="XBY0cPpDNSYfMkYO-j9c-27" value="&lt;font style=&quot;font-size: 18px;&quot;&gt;_pParent(sp)&lt;/font&gt;" style="rounded=0;whiteSpace=wrap;html=1;" vertex="1" parent="1">
          <mxGeometry x="486" y="745" width="180" height="60" as="geometry" />
        </mxCell>
        <mxCell id="XBY0cPpDNSYfMkYO-j9c-28" value="&lt;font style=&quot;font-size: 18px;&quot;&gt;_pChild(sp)&lt;/font&gt;" style="rounded=0;whiteSpace=wrap;html=1;" vertex="1" parent="1">
          <mxGeometry x="486" y="875" width="180" height="60" as="geometry" />
        </mxCell>
        <mxCell id="XBY0cPpDNSYfMkYO-j9c-29" value="child对象" style="text;html=1;align=center;verticalAlign=middle;resizable=0;points=[];autosize=1;strokeColor=none;fillColor=none;fontSize=18;" vertex="1" parent="1">
          <mxGeometry x="519" y="705" width="100" height="40" as="geometry" />
        </mxCell>
        <mxCell id="XBY0cPpDNSYfMkYO-j9c-30" value="parent对象" style="text;html=1;align=center;verticalAlign=middle;resizable=0;points=[];autosize=1;strokeColor=none;fillColor=none;fontSize=18;" vertex="1" parent="1">
          <mxGeometry x="521" y="835" width="110" height="40" as="geometry" />
        </mxCell>
        <mxCell id="XBY0cPpDNSYfMkYO-j9c-31" value="" style="endArrow=classic;html=1;rounded=0;fontSize=18;" edge="1" parent="1">
          <mxGeometry width="50" height="50" relative="1" as="geometry">
            <mxPoint x="219" y="755" as="sourcePoint" />
            <mxPoint x="399" y="670" as="targetPoint" />
          </mxGeometry>
        </mxCell>
        <mxCell id="XBY0cPpDNSYfMkYO-j9c-32" value="0" style="edgeLabel;html=1;align=center;verticalAlign=middle;resizable=0;points=[];fontSize=18;" vertex="1" connectable="0" parent="XBY0cPpDNSYfMkYO-j9c-31">
          <mxGeometry x="-0.0492" y="-1" relative="1" as="geometry">
            <mxPoint as="offset" />
          </mxGeometry>
        </mxCell>
        <mxCell id="XBY0cPpDNSYfMkYO-j9c-33" value="" style="endArrow=classic;html=1;rounded=0;fontSize=18;" edge="1" parent="1">
          <mxGeometry width="50" height="50" relative="1" as="geometry">
            <mxPoint x="219" y="935" as="sourcePoint" />
            <mxPoint x="389" y="1060" as="targetPoint" />
          </mxGeometry>
        </mxCell>
        <mxCell id="XBY0cPpDNSYfMkYO-j9c-34" value="1-----&amp;gt;0" style="edgeLabel;html=1;align=center;verticalAlign=middle;resizable=0;points=[];fontSize=18;" vertex="1" connectable="0" parent="XBY0cPpDNSYfMkYO-j9c-33">
          <mxGeometry x="-0.0988" y="-3" relative="1" as="geometry">
            <mxPoint x="1" as="offset" />
          </mxGeometry>
        </mxCell>
        <mxCell id="XBY0cPpDNSYfMkYO-j9c-35" value="" style="endArrow=classic;html=1;rounded=0;fontSize=18;entryX=0.128;entryY=0;entryDx=0;entryDy=0;entryPerimeter=0;" edge="1" parent="1" target="XBY0cPpDNSYfMkYO-j9c-28">
          <mxGeometry width="50" height="50" relative="1" as="geometry">
            <mxPoint x="509" y="805" as="sourcePoint" />
            <mxPoint x="559" y="755" as="targetPoint" />
          </mxGeometry>
        </mxCell>
        <mxCell id="XBY0cPpDNSYfMkYO-j9c-36" value="1-----&amp;gt;0" style="edgeLabel;html=1;align=center;verticalAlign=middle;resizable=0;points=[];fontSize=18;" vertex="1" connectable="0" parent="XBY0cPpDNSYfMkYO-j9c-35">
          <mxGeometry x="-0.0714" y="3" relative="1" as="geometry">
            <mxPoint as="offset" />
          </mxGeometry>
        </mxCell>
        <mxCell id="XBY0cPpDNSYfMkYO-j9c-37" value="" style="endArrow=classic;html=1;rounded=0;fontSize=18;entryX=0.8;entryY=1.05;entryDx=0;entryDy=0;entryPerimeter=0;" edge="1" parent="1" target="XBY0cPpDNSYfMkYO-j9c-27">
          <mxGeometry width="50" height="50" relative="1" as="geometry">
            <mxPoint x="631" y="875" as="sourcePoint" />
            <mxPoint x="681" y="825" as="targetPoint" />
          </mxGeometry>
        </mxCell>
        <mxCell id="XBY0cPpDNSYfMkYO-j9c-38" value="0" style="edgeLabel;html=1;align=center;verticalAlign=middle;resizable=0;points=[];fontSize=18;" vertex="1" connectable="0" parent="XBY0cPpDNSYfMkYO-j9c-37">
          <mxGeometry x="0.2082" y="-2" relative="1" as="geometry">
            <mxPoint as="offset" />
          </mxGeometry>
        </mxCell>
        <mxCell id="XBY0cPpDNSYfMkYO-j9c-39" value="内存释放成功" style="text;html=1;align=center;verticalAlign=middle;resizable=0;points=[];autosize=1;strokeColor=none;fillColor=none;fontSize=18;" vertex="1" parent="1">
          <mxGeometry x="269" y="1080" width="130" height="40" as="geometry" />
        </mxCell>
        <mxCell id="XBY0cPpDNSYfMkYO-j9c-40" value="堆区" style="text;html=1;align=center;verticalAlign=middle;resizable=0;points=[];autosize=1;strokeColor=none;fillColor=none;fontSize=18;" vertex="1" parent="1">
          <mxGeometry x="529" y="630" width="60" height="40" as="geometry" />
        </mxCell>
      </root>
    </mxGraphModel>
  </diagram>
</mxfile>
